<?xml version="1.0" encoding="UTF-8" standalone="no"?>
<!-- Created with Inkscape (http://www.inkscape.org/) -->

<svg
   version="1.1"
   id="svg2"
   xml:space="preserve"
   width="2666.6667"
   height="2666.6667"
   viewBox="0 0 2666.6667 2666.6667"
   sodipodi:docname="7495.eps"
   xmlns:inkscape="http://www.inkscape.org/namespaces/inkscape"
   xmlns:sodipodi="http://sodipodi.sourceforge.net/DTD/sodipodi-0.dtd"
   xmlns="http://www.w3.org/2000/svg"
   xmlns:svg="http://www.w3.org/2000/svg"><defs
     id="defs6" /><sodipodi:namedview
     id="namedview4"
     pagecolor="#ffffff"
     bordercolor="#666666"
     borderopacity="1.0"
     inkscape:pageshadow="2"
     inkscape:pageopacity="0.0"
     inkscape:pagecheckerboard="0" /><g
     id="g8"
     inkscape:groupmode="layer"
     inkscape:label="ink_ext_XXXXXX"
     transform="matrix(1.3333333,0,0,-1.3333333,0,2666.6667)"><g
       id="g10"
       transform="scale(0.1)"><path
         d="M 0,0 H 20000 V 20000 H 0 Z"
         style="fill:#ffffff;fill-opacity:1;fill-rule:nonzero;stroke:none"
         id="path12" /><path
         d="m 5794.68,7458.7 c -17.56,0 14.44,266.9 38.89,453 h -421.25 c -131.64,0 -238.34,106.7 -238.34,238.3 v 1690.2 c 0,131.6 106.7,238.3 238.34,238.3 h 4056.72 c 131.63,0 238.33,-106.7 238.33,-238.3 V 8150 c 0,-131.6 -106.7,-238.3 -238.33,-238.3 H 6141.41 c -123.61,-172.2 -328.04,-453 -346.73,-453"
         style="fill:#f4fafd;fill-opacity:1;fill-rule:nonzero;stroke:none"
         id="path14" /><path
         d="M 9662.97,10527.8 H 5606.24 c -131.63,0 -238.33,-106.7 -238.33,-238.4 V 8599.3 c 0,-131.7 106.7,-238.4 238.33,-238.4 h 421.26 c -24.44,-186 -56.45,-452.9 -38.89,-452.9 18.69,0 223.12,280.7 346.73,452.9 h 3327.63 c 131.63,0 238.33,106.7 238.33,238.4 v 1690.1 c 0,131.7 -106.7,238.4 -238.33,238.4"
         style="fill:#feb546;fill-opacity:1;fill-rule:nonzero;stroke:none"
         id="path16" /><path
         d="m 6750.81,9438.4 c 0,-330 -267.5,-597.5 -597.48,-597.5 -329.99,0 -597.49,267.5 -597.49,597.5 0,329.9 267.5,597.4 597.49,597.4 329.98,0 597.48,-267.5 597.48,-597.4"
         style="fill:#ffffff;fill-opacity:1;fill-rule:nonzero;stroke:none"
         id="path18" /><path
         d="m 6247.87,8962.1 h -175.43 v 175.2 h 175.43 v -175.2"
         style="fill:#ffc0bb;fill-opacity:1;fill-rule:nonzero;stroke:none"
         id="path20" /><path
         d="m 6247.87,9032.3 v 105 H 6072.44 V 9048 c 37.77,-20.3 93.69,-32 175.43,-15.7"
         style="fill:#f99893;fill-opacity:1;fill-rule:nonzero;stroke:none"
         id="path22" /><path
         d="m 6524.49,9450.8 c -18.3,9 -39.55,7.4 -58.78,-2.3 6.6,172.8 -134.57,318.2 -312.38,312.1 -177.81,6.1 -318.99,-139.3 -312.38,-312.1 -19.24,9.7 -40.49,11.3 -58.79,2.3 -35.12,-17.3 -46.04,-66.8 -24.38,-110.7 21.65,-43.8 67.68,-65.3 102.8,-48 4.87,2.4 9.23,5.5 13.16,9 20.12,-142.9 139.51,-250 279.59,-248 140.08,-2 259.46,105.1 279.59,248 3.92,-3.5 8.28,-6.6 13.15,-9 35.13,-17.3 81.15,4.2 102.81,48 21.65,43.9 10.73,93.4 -24.39,110.7"
         style="fill:#ffc0bb;fill-opacity:1;fill-rule:nonzero;stroke:none"
         id="path24" /><path
         d="m 5939.7,9829.1 c 0,0 88.04,74.5 288.17,62.4 200.12,-12 238.21,-116.4 249.55,-265.6 l -11.71,-177.4 c 0,0 -51.96,53.4 -119.62,201.5 0,0 -112.05,-125.7 -160.85,-110.8 -48.8,14.9 18.46,105.4 18.46,105.4 0,0 -228.29,-196.4 -362.75,-196.1 0,0 -71.16,229.9 28.72,314.2 0,0 -75.23,-3.6 -79.22,11.2 -3.98,14.8 35.89,37 108.2,28.6 0,0 -51.53,100.8 -22.74,111.3 28.78,10.5 63.79,-84.7 63.79,-84.7"
         style="fill:#07085b;fill-opacity:1;fill-rule:nonzero;stroke:none"
         id="path26" /><path
         d="m 6268.12,9246.7 c -7.71,-34.7 -47.37,-61.9 -95.99,-63.4 -48.62,-1.5 -89.88,23.3 -99.69,57.4 l 195.68,6"
         style="fill:#ffffff;fill-opacity:1;fill-rule:nonzero;stroke:none"
         id="path28" /><path
         d="M 9310.9,9936.9 H 6979.97 c -13,0 -23.53,10.5 -23.53,23.5 v 56.8 c 0,13 10.53,23.5 23.53,23.5 H 9310.9 c 13,0 23.53,-10.5 23.53,-23.5 v -56.8 c 0,-13 -10.53,-23.5 -23.53,-23.5"
         style="fill:#ffffff;fill-opacity:1;fill-rule:nonzero;stroke:none"
         id="path30" /><path
         d="m 7494.51,9662.9 h -514.54 c -13,0 -23.53,10.6 -23.53,23.6 v 56.7 c 0,13 10.53,23.5 23.53,23.5 h 514.54 c 12.99,0 23.52,-10.5 23.52,-23.5 v -56.7 c 0,-13 -10.53,-23.6 -23.52,-23.6"
         style="fill:#ffffff;fill-opacity:1;fill-rule:nonzero;stroke:none"
         id="path32" /><path
         d="M 9310.9,9662.9 H 7753.51 c -13,0 -23.53,10.6 -23.53,23.6 v 56.7 c 0,13 10.53,23.5 23.53,23.5 H 9310.9 c 13,0 23.53,-10.5 23.53,-23.5 v -56.7 c 0,-13 -10.53,-23.6 -23.53,-23.6"
         style="fill:#ffffff;fill-opacity:1;fill-rule:nonzero;stroke:none"
         id="path34" /><path
         d="M 8161.38,9389 H 6979.97 c -13,0 -23.53,10.5 -23.53,23.5 v 56.8 c 0,12.9 10.53,23.5 23.53,23.5 h 1181.41 c 13,0 23.53,-10.6 23.53,-23.5 v -56.8 c 0,-13 -10.53,-23.5 -23.53,-23.5"
         style="fill:#ffffff;fill-opacity:1;fill-rule:nonzero;stroke:none"
         id="path36" /><path
         d="m 9310.9,9389 h -922.77 c -12.99,0 -23.52,10.5 -23.52,23.5 v 56.8 c 0,12.9 10.53,23.5 23.52,23.5 h 922.77 c 13,0 23.53,-10.5 23.53,-23.5 v -56.8 c 0,-13 -10.53,-23.5 -23.53,-23.5"
         style="fill:#ffffff;fill-opacity:1;fill-rule:nonzero;stroke:none"
         id="path38" /><path
         d="M 9310.9,9115 H 6979.97 c -13,0 -23.53,10.5 -23.53,23.5 v 56.8 c 0,13 10.53,23.5 23.53,23.5 H 9310.9 c 13,0 23.53,-10.5 23.53,-23.5 v -56.8 c 0,-13 -10.53,-23.5 -23.53,-23.5"
         style="fill:#ffffff;fill-opacity:1;fill-rule:nonzero;stroke:none"
         id="path40" /><path
         d="m 11639.8,12668.3 147.8,-927 312.3,1235.9 c 0,0 -437.6,212.4 -457,135.1 -19.3,-77.2 -3.1,-444 -3.1,-444"
         style="fill:#07085b;fill-opacity:1;fill-rule:nonzero;stroke:none"
         id="path42" /><path
         d="m 14124.1,10673.1 135.1,-1602.6 -1414.2,67.5 163.1,1419.2 1116,115.9"
         style="fill:#ffc0bb;fill-opacity:1;fill-rule:nonzero;stroke:none"
         id="path44" /><path
         d="m 12930.5,9882.3 77.6,674.9 1116,115.9 46.8,-555 C 13949,9897 13550,9667.8 12930.5,9882.3"
         style="fill:#f99893;fill-opacity:1;fill-rule:nonzero;stroke:none"
         id="path46" /><path
         d="m 12063.4,11752.9 c 85.1,-175.9 39.9,-373.6 -100.7,-441.6 -140.7,-68.1 -323.7,19.4 -408.7,195.2 -85.1,175.9 -40,373.6 100.7,441.6 140.7,68 323.7,-19.4 408.7,-195.2"
         style="fill:#f99893;fill-opacity:1;fill-rule:nonzero;stroke:none"
         id="path48" /><path
         d="m 12053.2,10939.8 c -101.2,226.7 -160.4,470.5 -195,684.2 -7.4,45.9 -17.4,91.2 -28.3,136.4 -44,182.3 -55.7,377.9 -25.2,581.7 98.3,655.8 625.9,1178.5 1282.7,1269.3 884.9,122.4 1664.3,-532.8 1719.4,-1400.5 91,58.4 196.2,77.2 292.1,41.5 184,-68.6 263.7,-310.7 178,-540.8 -85.8,-230 -304.5,-360.9 -488.5,-292.3 -25.5,9.6 -48.8,22.7 -70.2,38.4 -28.4,-743.1 -597.3,-1351.4 -1323.6,-1385.4 -355.2,-16.6 -685.7,107.2 -942.2,324.1 -164.4,120.7 -319.5,355.8 -399.2,543.4"
         style="fill:#ffc0bb;fill-opacity:1;fill-rule:nonzero;stroke:none"
         id="path50" /><path
         d="m 12959.8,12108.6 c -2.9,-86.6 -3.6,-171.1 -8.1,-253.9 -5.1,-76.5 -13.5,-186.6 -61.2,-244.9 -7,-10 -44.5,-50.5 -45.4,-111.9 -1.9,-57.3 28.3,-108.6 66,-139.9 77.2,-65 177.2,-71.1 260,-50.7 -84.5,14.9 -165.4,44 -212.6,99.1 -21.8,27.5 -36.3,58.1 -31.2,86.8 3.7,33 22.1,50.2 28.7,60.2 23.5,31.1 51.8,63.5 63.8,169.3 4.3,45.4 3.6,89.5 -0.5,133.2 -8.4,87.1 -27,172 -59.5,252.7"
         style="fill:#f99893;fill-opacity:1;fill-rule:nonzero;stroke:none"
         id="path52" /><path
         d="m 13461,11994.2 c 3.4,-72.8 65.2,-129 138,-125.6 72.7,3.4 129,65.1 125.6,137.9 -3.5,72.8 -65.2,129 -138,125.6 -72.7,-3.4 -129,-65.2 -125.6,-137.9"
         style="fill:#333333;fill-opacity:1;fill-rule:nonzero;stroke:none"
         id="path54" /><path
         d="m 12333,11867 c 3.4,-72.8 65.2,-129 138,-125.6 72.7,3.4 129,65.2 125.5,137.9 -3.4,72.8 -65.1,129 -137.9,125.6 -72.8,-3.4 -129,-65.1 -125.6,-137.9"
         style="fill:#333333;fill-opacity:1;fill-rule:nonzero;stroke:none"
         id="path56" /><path
         d="m 13682.3,11101.1 c -134.3,-117 -309,-208.4 -482.4,-229.4 -187.6,-23.7 -353.3,33.5 -513,131.8 148.7,-124.9 320.9,-188.1 517.2,-166.2 191.2,24.9 369.9,135.1 478.2,263.8"
         style="fill:#f99893;fill-opacity:1;fill-rule:nonzero;stroke:none"
         id="path58" /><path
         d="m 13295.5,12292 c 185.8,57.5 291.1,60.7 376,50.4 185.4,-24.9 289.7,-106.9 354.4,-135.3 -78,143.7 -197.8,220.4 -342.7,238.5 -156.9,18.8 -310.4,-52.1 -387.7,-153.6"
         style="fill:#07085b;fill-opacity:1;fill-rule:nonzero;stroke:none"
         id="path60" /><path
         d="m 12714.4,12226.6 c -95.3,84.2 -259.5,124.4 -410.2,75.3 -138.1,-45.7 -241.1,-143.9 -289.9,-300.4 58.2,40.5 144.3,141 321.4,201.4 81.1,26.6 184.8,44 378.7,23.7"
         style="fill:#07085b;fill-opacity:1;fill-rule:nonzero;stroke:none"
         id="path62" /><path
         d="m 12687.1,9709.6 c 0,0 -1330.9,-169 -1668.9,-443.7 -338,-274.6 -1964.6,-4309.4 -1964.6,-4309.4 l 1352,-1584.4 2873,-21.1 c 0,0 2154.7,-1161.9 3506.7,-63.4 1352,1098.5 654.9,4922.1 -126.8,5746 -781.6,823.8 -2175.8,802.7 -2175.8,802.7 0,0 -1267.5,-887.2 -1795.6,-126.7"
         style="fill:#02ccc0;fill-opacity:1;fill-rule:nonzero;stroke:none"
         id="path64" /><path
         d="m 15264.3,7702.7 c -47.6,-219.9 -76.7,-443.1 -97.5,-667 -11.4,-112 -16.4,-224.4 -22.8,-336.8 -3.4,-112.5 -6,-225.1 -4.5,-337.8 4.4,-225.3 16.8,-451.3 55.5,-674.3 37.8,-222.2 92.8,-445.1 196.1,-645.8 -69.5,214.1 -104,434.2 -128.9,654.9 -24.5,220.9 -33,443.7 -35.9,666.3 -4.6,222.8 0.9,445.9 7.9,669.3 8,223.3 18.2,446.8 30.1,671.2"
         style="fill:#ffffff;fill-opacity:1;fill-rule:nonzero;stroke:none"
         id="path66" /><path
         d="m 11282.3,7850.6 c -60.8,-327.3 -125.2,-653.3 -190.7,-978.8 -66.8,-325.2 -135.9,-649.8 -214.6,-971.8 -77.9,-322.1 -164.3,-642.2 -269,-955.9 -52.3,-156.9 -110.9,-311.6 -179.5,-461.8 -67.6,-150.5 -147.8,-296.2 -255.3,-423.6 122.3,114.1 212.2,258.8 293.5,404.6 78.7,147.9 146.7,301.3 205.2,457.9 59.8,156.1 111,315.3 159.7,475 46.8,160.2 89.7,321.4 129.7,483.3 38.2,162.4 74.8,325 107.7,488.4 31.7,163.6 62.9,327.2 89.1,491.7 54.4,328.6 96.6,659.1 124.2,991"
         style="fill:#ffffff;fill-opacity:1;fill-rule:nonzero;stroke:none"
         id="path68" /><path
         d="m 10613.5,4285.3 c 8.5,66.8 516.2,141.5 702.8,151.2 141.4,7.3 1078.7,38.6 1397.5,53 l -23.4,-82 4.9,-362 52.3,-240 c -279.7,-17.6 -963.5,-44.4 -1105.9,-72.6 -190.2,-37.6 -520.1,-181 -520.1,-181 0,0 -137.2,31.2 37.2,106.4 140,60.4 238.2,154.1 279.8,200.5 23.9,26.8 -2,74.4 -19.4,69.9 -474.7,-124.4 -523.6,-145 -523.6,-145 0,0 -557.9,3.1 -3.1,128.5 332.5,75.2 451.7,118.9 481.3,156.2 12.6,15.9 -9.9,69.9 -30.1,71.2 -288.2,17.8 -805.3,-84.3 -663.6,-17.4 115.5,54.7 479.3,114.5 620.7,137.1 8.7,1.4 22.8,54.1 -15.9,57.3 -274.4,22.9 -679.3,-93.5 -671.4,-31.3"
         style="fill:#ffc0bb;fill-opacity:1;fill-rule:nonzero;stroke:none"
         id="path70" /><path
         d="m 15239.7,5010.8 c -116.5,-27.7 -234.7,-48 -351.7,-72.6 -235.5,-43 -471.7,-80.4 -708.7,-113.6 -237.2,-31.2 -474.7,-59.8 -712.9,-82.8 -237.2,-23.6 -478.5,-43.8 -713.3,-56.9 l -31.6,-1.7 -6.9,-27.4 c -20.2,-79.6 -33.4,-157.3 -43.4,-236.9 -9.9,-79.3 -14.1,-159.3 -14,-239.3 0.7,-80.1 7.6,-160.3 20.8,-239.5 14.6,-79.2 38,-156.8 69.5,-231.1 l 2.7,-6.4 5.2,-3.4 260.9,-175.1 c 86.9,-58.4 174.2,-116.3 262.3,-173.1 -81.8,65.5 -164.4,129.9 -247.4,193.9 l -242.7,187.3 c -25.1,70.2 -43,142.8 -52.8,216.9 -9.2,76.1 -13.5,152.9 -11.2,229.8 2.6,76.9 10.2,153.7 20.9,230 9.8,66.2 22.7,133 39,196.9 112.6,3.7 220.5,11 331.1,19.1 119.9,8.8 239.9,18.3 359.5,30.9 239.2,24.8 478,54.6 715.6,92.6 237.6,38.3 473.9,84.7 708.1,140 116.6,29.8 233.4,58.5 348.2,94.8 115.8,32.5 229.2,73 342.2,113.2 -116.8,-28.4 -232,-61 -349.4,-85.6"
         style="fill:#ffffff;fill-opacity:1;fill-rule:nonzero;stroke:none"
         id="path72" /><path
         d="m 5042.84,6973.9 h 4527.74 c 138.9,0 264.02,-84 316.68,-212.5 l 1386.44,-3384 H 13777 c 70,0 126.7,-56.8 126.7,-126.8 0,-70 -56.7,-126.7 -126.7,-126.7 H 6549.82 c -133.48,0 -254.52,78.4 -309.15,200.2 L 4783.31,6573 c -84.42,188.2 53.27,400.9 259.53,400.9"
         style="fill:#07085b;fill-opacity:1;fill-rule:nonzero;stroke:none"
         id="path74" /><path
         d="m 11611.5,13545.3 c 0,0 -443.7,-14.3 21.9,360.9 465.6,375.2 1715.7,815.1 2517,392 0,0 160.2,340.6 391.8,259.3 231.6,-81.3 -150.6,-315.7 -150.6,-315.7 0,0 295.8,9.6 386,-135.5 66.8,-107.3 -114.4,-112 -213.4,-107.2 168.4,-28.6 813.9,-436.3 489.9,-1737.9 -115.1,25.3 -771.3,976.9 -771.3,976.9 0,0 -1500.7,-833.7 -1352.3,-170.8 0,0 -1554.6,-970.2 -1334.1,-168.8 0,0 -601.1,-44 15.1,646.8"
         style="fill:#07085b;fill-opacity:1;fill-rule:nonzero;stroke:none"
         id="path76" /><path
         d="m 15055.4,12253.4 c 0,0 -124.3,43.7 -257.9,-62.4 -133.7,-106.1 -118.9,-478.7 -118.9,-478.7 0,0 -637.9,-411.4 -570.6,1329.2 71.5,1851.8 532.1,-148.5 532.1,-148.5 l 415.3,-639.6"
         style="fill:#07085b;fill-opacity:1;fill-rule:nonzero;stroke:none"
         id="path78" /><path
         d="m 5994.16,10840.3 c -23.68,0 -292.11,369.9 -440.15,576.5 H 1895.99 c -160.49,0 -290.6,130.1 -290.6,290.6 v 1917.4 c 0,160.5 130.11,290.6 290.6,290.6 h 4646.29 c 160.5,0 290.6,-130.1 290.6,-290.6 v -1917.4 c 0,-160.5 -130.1,-290.6 -290.6,-290.6 h -598.74 c 30.1,-227.1 72.81,-576.5 50.62,-576.5"
         style="fill:#f4fafd;fill-opacity:1;fill-rule:nonzero;stroke:none"
         id="path80" /><path
         d="M 6350.45,14412.8 H 1704.16 c -160.5,0 -290.6,-130.1 -290.6,-290.6 v -1917.4 c 0,-160.5 130.1,-290.6 290.6,-290.6 h 3658.02 c 148.04,-206.6 416.46,-576.6 440.15,-576.6 22.19,0 -20.52,349.5 -50.62,576.6 h 598.74 c 160.5,0 290.6,130.1 290.6,290.6 v 1917.4 c 0,160.5 -130.1,290.6 -290.6,290.6"
         style="fill:#ff5b7e;fill-opacity:1;fill-rule:nonzero;stroke:none"
         id="path82" /><path
         d="m 3139.27,13163.5 c 0,-402.4 -326.16,-728.5 -728.5,-728.5 -402.34,0 -728.5,326.1 -728.5,728.5 0,402.3 326.16,728.5 728.5,728.5 402.34,0 728.5,-326.2 728.5,-728.5"
         style="fill:#ffffff;fill-opacity:1;fill-rule:nonzero;stroke:none"
         id="path84" /><path
         d="m 2031.56,13144.3 c 0,0 -72.24,296.5 99.85,407.5 172.1,111 355.85,136.4 481.42,72.4 174.06,-88.6 245.58,-328.2 189.88,-460.7 l -462.01,116 -309.14,-135.2"
         style="fill:#040744;fill-opacity:1;fill-rule:nonzero;stroke:none"
         id="path86" /><path
         d="m 2526.04,12582.8 h -213.9 v 213.6 h 213.9 v -213.6"
         style="fill:#ffc0bb;fill-opacity:1;fill-rule:nonzero;stroke:none"
         id="path88" /><path
         d="m 2526.04,12668.3 v 128.1 h -213.9 v -109 c 46.05,-24.6 114.24,-38.9 213.9,-19.1"
         style="fill:#f99893;fill-opacity:1;fill-rule:nonzero;stroke:none"
         id="path90" /><path
         d="m 2863.33,13178.7 c -22.32,11 -48.23,9 -71.68,-2.9 8.05,210.8 -164.08,388 -380.88,380.5 -216.81,7.5 -388.94,-169.7 -380.89,-380.5 -23.44,11.9 -49.35,13.9 -71.67,2.9 -42.82,-21.1 -56.13,-81.5 -29.73,-135 26.41,-53.4 82.52,-79.7 125.34,-58.6 5.95,3 11.26,6.7 16.05,11 24.53,-174.2 170.1,-304.8 340.9,-302.4 170.8,-2.4 316.36,128.2 340.9,302.4 4.78,-4.3 10.09,-8 16.04,-11 42.82,-21.1 98.94,5.2 125.34,58.6 26.4,53.5 13.09,113.9 -29.72,135"
         style="fill:#ffc0bb;fill-opacity:1;fill-rule:nonzero;stroke:none"
         id="path92" /><path
         d="m 2550.73,12929.7 c -9.4,-42.2 -57.76,-75.4 -117.04,-77.2 -59.28,-1.8 -109.58,28.3 -121.55,69.9 l 238.59,7.3"
         style="fill:#ffffff;fill-opacity:1;fill-rule:nonzero;stroke:none"
         id="path94" /><path
         d="m 2029.88,13175.8 c 0,0 279.95,84.8 402.48,226.4 0,0 -34.67,-170.6 -60.54,-197.8 8.17,-5.4 279.6,126.5 316.48,248.3 36.87,121.8 -277.53,165.6 -277.53,165.6 0,0 -107.74,-45.9 -113.19,-48.6 -5.45,-2.7 -106.5,-14.5 -118.09,-40.3 -15.08,-33.5 -86.42,-36.5 -86.42,-36.5 l -45.04,-93.7 -31.52,-98.6 13.37,-124.8"
         style="fill:#040744;fill-opacity:1;fill-rule:nonzero;stroke:none"
         id="path96" /><path
         d="m 1800.55,13561.5 c 61.85,-24.9 133.26,-36.4 207.3,-13.7 163.36,50.2 228.08,30.7 249.81,18.4 13.06,-7.4 28.61,-10.3 42.86,-5.6 16.12,5.4 31.07,20 26.42,56.8 0,0 6.46,155.2 -126.59,243.7 -165.99,-50 -307,-157.7 -399.8,-299.6"
         style="fill:#040744;fill-opacity:1;fill-rule:nonzero;stroke:none"
         id="path98" /><path
         d="m 2152.07,13571.7 h -0.04 c -4.84,6.4 -3.31,15.5 3.37,19.9 27.29,18 97.49,58.3 181.77,62.7 7.91,0.4 14.54,-6 14.54,-13.9 0,-7.4 -5.79,-13.4 -13.15,-13.8 -77.04,-4 -143.09,-42 -167.97,-58.2 -6.07,-4 -14.15,-2.5 -18.52,3.3"
         style="fill:#feb546;fill-opacity:1;fill-rule:nonzero;stroke:none"
         id="path100" /><path
         d="m 4228.58,13664.5 h -918.56 c -15.85,0 -28.69,12.8 -28.69,28.7 v 69.2 c 0,15.8 12.84,28.7 28.69,28.7 h 918.56 c 15.84,0 28.69,-12.9 28.69,-28.7 v -69.2 c 0,-15.9 -12.85,-28.7 -28.69,-28.7"
         style="fill:#ffffff;fill-opacity:1;fill-rule:nonzero;stroke:none"
         id="path102" /><path
         d="m 3911.87,13330.4 h -601.85 c -15.85,0 -28.69,12.9 -28.69,28.7 v 69.3 c 0,15.8 12.84,28.6 28.69,28.6 h 601.85 c 15.84,0 28.69,-12.8 28.69,-28.6 v -69.3 c 0,-15.8 -12.85,-28.7 -28.69,-28.7"
         style="fill:#ffffff;fill-opacity:1;fill-rule:nonzero;stroke:none"
         id="path104" /><path
         d="m 4836.79,13330.4 h -753.87 c -15.84,0 -28.69,12.9 -28.69,28.7 v 69.3 c 0,15.8 12.85,28.6 28.69,28.6 h 753.86 c 15.85,0 28.69,-12.8 28.69,-28.6 v -69.3 c 0,-15.8 -12.84,-28.7 -28.68,-28.7"
         style="fill:#ffffff;fill-opacity:1;fill-rule:nonzero;stroke:none"
         id="path106" /><path
         d="M 6044.05,13664.5 H 4447.68 c -15.85,0 -28.69,12.8 -28.69,28.7 v 69.2 c 0,15.8 12.84,28.7 28.69,28.7 h 1596.37 c 15.84,0 28.68,-12.9 28.68,-28.7 v -69.2 c 0,-15.9 -12.84,-28.7 -28.68,-28.7"
         style="fill:#ffffff;fill-opacity:1;fill-rule:nonzero;stroke:none"
         id="path108" /><path
         d="M 6044.05,12675.7 H 3310.02 c -15.85,0 -28.69,12.8 -28.69,28.7 v 69.2 c 0,15.8 12.84,28.7 28.69,28.7 h 2734.03 c 15.84,0 28.68,-12.9 28.68,-28.7 v -69.2 c 0,-15.9 -12.84,-28.7 -28.68,-28.7"
         style="fill:#ffffff;fill-opacity:1;fill-rule:nonzero;stroke:none"
         id="path110" /><path
         d="M 4694.68,12996.4 H 3310.02 c -15.85,0 -28.69,12.9 -28.69,28.7 v 69.2 c 0,15.9 12.84,28.7 28.69,28.7 h 1384.66 c 15.85,0 28.69,-12.8 28.69,-28.7 v -69.2 c 0,-15.8 -12.84,-28.7 -28.69,-28.7"
         style="fill:#ffffff;fill-opacity:1;fill-rule:nonzero;stroke:none"
         id="path112" /><path
         d="M 6044.05,12996.4 H 4963 c -15.85,0 -28.69,12.9 -28.69,28.7 v 69.2 c 0,15.9 12.84,28.7 28.69,28.7 h 1081.05 c 15.84,0 28.68,-12.8 28.68,-28.7 v -69.2 c 0,-15.8 -12.84,-28.7 -28.68,-28.7"
         style="fill:#ffffff;fill-opacity:1;fill-rule:nonzero;stroke:none"
         id="path114" /><path
         d="m 7850.63,5100 c 44.6,-211.5 -44.59,-409.4 -199.2,-442 -154.62,-32.6 -316.12,112.4 -360.72,323.9 -44.6,211.5 44.59,409.4 199.21,442 154.62,32.6 316.12,-112.4 360.71,-323.9"
         style="fill:#ffffff;fill-opacity:1;fill-rule:nonzero;stroke:none"
         id="path116" /><path
         d="m 6054.75,16502.6 96.86,-729.8 -518.42,378.5 -1586.72,810.6 1227.32,-112.3 c 0,0 625.23,-151.9 659.07,-182.5 33.84,-30.7 121.89,-164.5 121.89,-164.5"
         style="fill:#c12f56;fill-opacity:1;fill-rule:nonzero;stroke:none"
         id="path118" /><path
         d="m 6598.22,16943.3 -2551.75,18.6 2008.28,-459.3 z"
         style="fill:#ff5b7e;fill-opacity:1;fill-rule:nonzero;stroke:none"
         id="path120" /><path
         d="m 5234.46,15768.4 668.62,537 -1856.61,656.5 z"
         style="fill:#ff5b7e;fill-opacity:1;fill-rule:nonzero;stroke:none"
         id="path122" /><path
         d="m 9210.69,12558 -33.67,49.8 c 51.57,34.8 98.82,77.6 140.44,127.1 l 45.98,-38.7 c -45.18,-53.7 -96.57,-100.2 -152.75,-138.2"
         style="fill:#feb546;fill-opacity:1;fill-rule:nonzero;stroke:none"
         id="path124" /><path
         d="m 7391.67,15729 c -81.95,95.9 -177.81,179.3 -284.94,247.9 l 32.39,50.6 c 112.11,-71.7 212.46,-159 298.24,-259.5 z m 758.6,-243.3 c -108.95,33.3 -195.47,53.5 -237.36,55.5 -48.05,2.3 -91.98,2.8 -134.3,1.5 l -1.83,60.1 c 43.9,1.3 89.37,0.8 138.99,-1.5 63.89,-3.1 185.34,-37.7 252.05,-58.1 z m -996.94,-269.4 -54.21,25.9 c 54.45,113.9 156.76,213.6 280.74,273.7 l 8.27,3.9 25.56,-54.4 -7.63,-3.6 c -111.93,-54.2 -204.05,-143.7 -252.73,-245.5 z m 528.27,-184.9 -58.82,12.3 c 7.76,37 11.74,74.8 11.83,112.2 0.15,52.8 -6.63,107.2 -20.11,161.9 -7.32,29.7 -16.76,60 -28.03,90 l 56.24,21.1 c 12.11,-32.2 22.25,-64.7 30.13,-96.7 14.66,-59.4 22.01,-118.8 21.87,-176.4 -0.11,-41.6 -4.51,-83.4 -13.11,-124.4 z m 1125.8,79.4 c -95.63,81.4 -199.16,158.6 -307.73,229.7 l 32.9,50.3 c 110.66,-72.4 216.23,-151.3 313.78,-234.3 z m -1375.87,-433 c -40.93,-10.1 -145.15,-12.4 -212.05,27.5 -50.03,29.8 -91.68,76.7 -120.43,135.5 l 53.98,26.4 c 23.96,-49 56.66,-86.1 97.21,-110.3 48.25,-28.7 134.3,-28.8 166.91,-20.7 4.36,1.1 6.03,1.9 6.04,1.9 2.54,1.6 5.56,3.6 8.56,5.6 l 33.36,-50 c -3.44,-2.3 -6.89,-4.6 -10.39,-6.8 -5.91,-3.7 -13.51,-6.7 -23.19,-9.1 z m 1877.51,-142.1 c -64.24,104.9 -140.87,208.2 -227.79,306.9 l 45.09,39.7 c 89.21,-101.3 167.92,-207.4 233.96,-315.2 z m 308.24,-707.7 -59.8,-6.1 c -1.66,16.5 -3.58,33 -5.77,49.4 -7.43,56 -18.13,112.4 -31.82,168 -12.62,51.1 -28.07,102.6 -45.94,153.1 l 56.65,20 c 18.52,-52.3 34.55,-105.7 47.63,-158.8 14.22,-57.6 25.34,-116.3 33.05,-174.4 2.22,-16.6 4.23,-33.8 6,-51.2 z m -68.94,-780.3 -57.33,18.1 c 34.81,110.8 57.81,236.7 68.37,374 l 59.91,-4.6 c -10.91,-141.9 -34.77,-272.3 -70.95,-387.5"
         style="fill:#feb546;fill-opacity:1;fill-rule:nonzero;stroke:none"
         id="path126" /><path
         d="m 6762.04,16130.8 c -63.21,17.4 -127.04,29.4 -189.74,35.8 l 6.07,59.7 c 66.01,-6.6 133.17,-19.3 199.6,-37.6 l -15.93,-57.9"
         style="fill:#feb546;fill-opacity:1;fill-rule:nonzero;stroke:none"
         id="path128" /><path
         d="m 4005.01,7633.8 c 0,0 -22.12,-218 -194.2,-233.1 172.08,-15.1 194.19,-233.2 194.19,-233.2 0,0 22.12,218.1 194.21,233.2 -172.09,15.1 -194.2,233.1 -194.2,233.1"
         style="fill:#ff5b7e;fill-opacity:1;fill-rule:nonzero;stroke:none"
         id="path130" /><path
         d="m 10483,10742.3 c 0,0 -35.2,-347.3 -309.2,-371.3 274,-24 309.2,-371.2 309.2,-371.2 0,0 35.2,347.2 309.2,371.2 -274,24 -309.2,371.3 -309.2,371.3"
         style="fill:#02ccc0;fill-opacity:1;fill-rule:nonzero;stroke:none"
         id="path132" /><path
         d="m 1010.33,14936.4 c 0,0 -35.217,-347.2 -309.217,-371.3 274,-24 309.217,-371.2 309.217,-371.2 0,0 35.22,347.2 309.22,371.2 -274,24.1 -309.22,371.3 -309.22,371.3"
         style="fill:#02ccc0;fill-opacity:1;fill-rule:nonzero;stroke:none"
         id="path134" /><path
         d="m 7635.12,12031.9 c 0,0 -26.85,-307.6 -235.81,-328.9 208.96,-21.3 235.81,-328.9 235.81,-328.9 0,0 26.86,307.6 235.82,328.9 -208.96,21.3 -235.82,328.9 -235.82,328.9"
         style="fill:#feb546;fill-opacity:1;fill-rule:nonzero;stroke:none"
         id="path136" /><path
         d="m 2213.65,16529.5 c 0,0 -26.86,-307.7 -235.82,-328.9 208.96,-21.3 235.82,-329 235.82,-329 0,0 26.85,307.7 235.82,329 -208.97,21.2 -235.82,328.9 -235.82,328.9"
         style="fill:#feb546;fill-opacity:1;fill-rule:nonzero;stroke:none"
         id="path138" /><path
         d="m 19290,15680.1 c 0,-990.1 -890.7,-1792.8 -1989.3,-1792.8 -1098.7,0 -1989.4,802.7 -1989.4,1792.8 0,990.2 890.7,1792.8 1989.4,1792.8 1098.6,0 1989.3,-802.6 1989.3,-1792.8"
         style="fill:#e6f7ff;fill-opacity:1;fill-rule:nonzero;stroke:none"
         id="path140" /><path
         d="m 16077,13619.2 c 0,-129.4 -116.4,-234.3 -259.9,-234.3 -143.6,0 -260,104.9 -260,234.3 0,129.4 116.4,234.2 260,234.2 143.5,0 259.9,-104.8 259.9,-234.2"
         style="fill:#e6f7ff;fill-opacity:1;fill-rule:nonzero;stroke:none"
         id="path142" /><path
         d="m 18201.2,15976.9 c -42.1,233.2 -202.8,422.7 -447.3,440.4 -306.8,22.1 -427.4,-254.9 -449.4,-280.4 -14.1,16.7 -77.6,181 -250.3,257.3 -282.6,124.9 -625.1,-68.7 -663.8,-481 -20,-213.7 42.7,-376 164.1,-546.3 174.3,-244.5 478,-508.3 719.6,-686.7 9,-6.6 15.1,-6.6 23.8,0 129.8,98 570.4,401.1 796.2,753.5 107,167.1 142.3,348.3 107.1,543.2"
         style="fill:#ff5b7e;fill-opacity:1;fill-rule:nonzero;stroke:none"
         id="path144" /></g></g></svg>
